<svg xmlns="http://www.w3.org/2000/svg" viewBox="0 0 64 80" x="0px" y="0px"><g><rect x="2" y="60" width="2" height="2"/><path d="M29.966,26.513,34.207,47.2l1.959-.4L31.925,26.111,37.8,24.906l.4,1.959,1.959-.4-.4-1.959L46.619,23.1l.4,1.96,1.958-.4-.6-2.938-.2-.981A19.956,19.956,0,0,0,25.556,5.009L25.145,3l-1.959.4L23.6,5.412A20.008,20.008,0,0,0,8.991,28.771l.2.98.6,2.938,1.959-.4-.4-1.958,6.857-1.406.4,1.959,1.959-.4-.4-1.958,5.877-1.205L30.124,47.2l1.959-.4L28.006,26.914l.98-.2ZM37.4,22.946l-7.837,1.607L25.973,7.041C30.515,7.159,35.576,14.051,37.4,22.946Zm8.817-1.807-6.858,1.406h0a30.453,30.453,0,0,0-5.773-13A15.535,15.535,0,0,0,30.843,6.9,18,18,0,0,1,46.217,21.139ZM19.464,9.254A15.566,15.566,0,0,0,18,12.734a30.474,30.474,0,0,0-.191,14.229L10.95,28.369A18.02,18.02,0,0,1,19.464,9.254Zm.3,17.308c-1.824-8.9.116-17.217,4.247-19.118L27.6,24.955l-7.837,1.607Z"/><path d="M54,53.859V50a1,1,0,0,0-1-1H21.547L14.438,35.305a1,1,0,0,0-1.349-.427l-3.55,1.843a1,1,0,0,0-.427,1.348L14.787,49H11a1,1,0,0,0-1,1v3.859L8.245,60H6v2H62V60H55.755ZM11.349,38.035l1.774-.921L19.293,49H17.04ZM12,51H52v2H12Zm-.245,4h40.49l1.429,5h-14.8l-.656-3.2-1.959.4.574,2.8H34.789l-.656-3.2-1.959.4.574,2.8H10.326Z"/><path d="M62,18A16,16,0,0,0,38.012,4.134l1,1.732a14,14,0,1,1-2.345,22.57l-1.334,1.49A16,16,0,0,0,62,18Z"/></g><text x="0" y="79" fill="#000000" font-size="5px" font-weight="bold" font-family="'Helvetica Neue', Helvetica, Arial-Unicode, Arial, Sans-serif">Created by Nhor</text><text x="0" y="84" fill="#000000" font-size="5px" font-weight="bold" font-family="'Helvetica Neue', Helvetica, Arial-Unicode, Arial, Sans-serif">from the Noun Project</text></svg>